<svg xmlns="http://www.w3.org/2000/svg" viewBox="0 0 800 480" width="100%" height="100%">
  <defs>
    <linearGradient id="bgGradM" x1="0%" y1="0%" x2="100%" y2="100%">
      <stop offset="0%" stop-color="#0b1120"/>
      <stop offset="50%" stop-color="#0f172a"/>
      <stop offset="100%" stop-color="#070a13"/>
    </linearGradient>
    <pattern id="gridPatternM" width="30" height="30" patternUnits="userSpaceOnUse">
      <path d="M 30 0 L 0 0 0 30" fill="none" stroke="rgba(255, 255, 255, 0.04)" stroke-width="1"/>
    </pattern>
  </defs>
  <rect width="800" height="480" fill="url(#bgGradM)"/>
  <rect width="800" height="480" fill="url(#gridPatternM)"/>
  <g transform="translate(60, 50)">
    <rect width="680" height="370" rx="14" fill="#0b1124" stroke="rgba(255, 255, 255, 0.1)" stroke-width="1.5"/>
    <rect width="680" height="44" rx="14" fill="#0f172e"/>
    <rect y="30" width="680" height="14" fill="#0f172e"/>
    <line x1="0" y1="44" x2="680" y2="44" stroke="rgba(255, 255, 255, 0.08)" stroke-width="1"/>
    <circle cx="28" cy="22" r="5" fill="#ef4444" opacity="0.75"/>
    <circle cx="46" cy="22" r="5" fill="#f59e0b" opacity="0.75"/>
    <circle cx="64" cy="22" r="5" fill="#10b981" opacity="0.75"/>
    <rect x="100" y="12" width="480" height="20" rx="6" fill="#1e293b" opacity="0.6"/>
    <text x="340" y="26" fill="#64748b" font-family="'JetBrains Mono', monospace" font-size="10" text-anchor="middle">cms.princedhamsaniya.dev/materials-inventory</text>
    <line x1="160" y1="44" x2="160" y2="370" stroke="rgba(255, 255, 255, 0.06)" stroke-width="1"/>
    <rect x="20" y="65" width="120" height="26" rx="6" fill="transparent"/>
    <circle cx="34" cy="78" r="4" fill="#475569"/>
    <rect x="46" y="75" width="60" height="6" rx="3" fill="#334155"/>
    <rect x="20" y="98" width="120" height="26" rx="6" fill="rgba(6, 182, 212, 0.15)"/>
    <rect x="30" y="107" width="8" height="8" rx="2" fill="#06b6d4"/>
    <rect x="46" y="108" width="70" height="6" rx="3" fill="#38bdf8"/>
    <g transform="translate(180, 65)">
      <text x="0" y="20" fill="#ffffff" font-family="'Plus Jakarta Sans', sans-serif" font-weight="700" font-size="16">Materials &amp; Inventory Logistics</text>
      <text x="0" y="38" fill="#64748b" font-family="'Plus Jakarta Sans', sans-serif" font-size="11">Automated stock requisition, supplier purchase orders &amp; on-site ledger</text>
      <g transform="translate(0, 52)">
        <rect width="465" height="195" rx="8" fill="#131d36" stroke="rgba(255, 255, 255, 0.06)"/>
        <line x1="0" y1="36" x2="465" y2="36" stroke="rgba(255, 255, 255, 0.06)"/>
        <text x="16" y="24" fill="#64748b" font-family="'Plus Jakarta Sans', sans-serif" font-size="11" font-weight="600">ITEM / MATERIAL</text>
        <text x="170" y="24" fill="#64748b" font-family="'Plus Jakarta Sans', sans-serif" font-size="11" font-weight="600">IN STOCK</text>
        <text x="280" y="24" fill="#64748b" font-family="'Plus Jakarta Sans', sans-serif" font-size="11" font-weight="600">REQ. STATUS</text>
        <text x="390" y="24" fill="#64748b" font-family="'Plus Jakarta Sans', sans-serif" font-size="11" font-weight="600">DISPATCH</text>
        
        <!-- Item 1 -->
        <text x="16" y="65" fill="#ffffff" font-size="12" font-family="'Plus Jakarta Sans', sans-serif" font-weight="600">TMT Steel Rebar (12mm)</text>
        <text x="170" y="65" fill="#38bdf8" font-size="12" font-family="'JetBrains Mono', monospace">42.5 Tons</text>
        <rect x="280" y="52" width="75" height="18" rx="4" fill="rgba(16, 185, 129, 0.15)"/>
        <text x="290" y="65" fill="#10b981" font-size="10" font-family="'Plus Jakarta Sans', sans-serif" font-weight="600">DELIVERED</text>
        <text x="390" y="65" fill="#94a3b8" font-size="11" font-family="'JetBrains Mono', monospace">Site A-01</text>
        
        <!-- Item 2 -->
        <text x="16" y="105" fill="#ffffff" font-size="12" font-family="'Plus Jakarta Sans', sans-serif" font-weight="600">Portland Cement (Grade 53)</text>
        <text x="170" y="105" fill="#38bdf8" font-size="12" font-family="'JetBrains Mono', monospace">850 Bags</text>
        <rect x="280" y="92" width="75" height="18" rx="4" fill="rgba(245, 158, 11, 0.15)"/>
        <text x="290" y="105" fill="#f59e0b" font-size="10" font-family="'Plus Jakarta Sans', sans-serif" font-weight="600">IN TRANSIT</text>
        <text x="390" y="105" fill="#94a3b8" font-size="11" font-family="'JetBrains Mono', monospace">Site B-04</text>
        
        <!-- Item 3 -->
        <text x="16" y="145" fill="#ffffff" font-size="12" font-family="'Plus Jakarta Sans', sans-serif" font-weight="600">Ready-Mix Concrete (M25)</text>
        <text x="170" y="145" fill="#38bdf8" font-size="12" font-family="'JetBrains Mono', monospace">120 m³</text>
        <rect x="280" y="132" width="75" height="18" rx="4" fill="rgba(168, 85, 247, 0.15)"/>
        <text x="290" y="145" fill="#a855f7" font-size="10" font-family="'Plus Jakarta Sans', sans-serif" font-weight="600">BATCHED</text>
        <text x="390" y="145" fill="#94a3b8" font-size="11" font-family="'JetBrains Mono', monospace">Site C-02</text>
      </g>
    </g>
  </g>
</svg>
